<?xml version="1.0" encoding="UTF-8"?>
<svg id="Layer_2" data-name="Layer 2" xmlns="http://www.w3.org/2000/svg" viewBox="0 0 201.26 203.13">
  <defs>
    <style>
      .cls-1 {
        fill: #c5852c;
      }

      .cls-2 {
        fill: #e8ab28;
      }

      .cls-3 {
        fill: #fcdb70;
      }

      .cls-4 {
        fill: #fcde74;
      }

      .cls-5 {
        fill: #fbd061;
      }

      .cls-6 {
        fill: #ca882d;
      }

      .cls-7 {
        fill: #9b6127;
      }

      .cls-8 {
        fill: #fde07c;
      }

      .cls-9 {
        fill: #4b2d15;
      }

      .cls-10 {
        fill: #4b2d16;
      }

      .cls-11 {
        fill: #f5bd31;
      }

      .cls-12 {
        fill: #c9832c;
      }

      .cls-13 {
        fill: #492c16;
      }

      .cls-14 {
        fill: #fcdf75;
      }

      .cls-15 {
        fill: #915a26;
      }

      .cls-16 {
        fill: #fde589;
      }

      .cls-17 {
        fill: #bf7f2a;
      }

      .cls-18 {
        fill: #fcdc72;
      }

      .cls-19 {
        fill: #fcd970;
      }

      .cls-20 {
        fill: #b47e36;
      }

      .cls-21 {
        fill: #fcdd78;
      }

      .cls-22 {
        fill: #f4ba2d;
      }

      .cls-23 {
        fill: #cc892d;
      }

      .cls-24 {
        fill: #fde587;
      }

      .cls-25 {
        fill: #fcdc70;
      }

      .cls-26 {
        fill: #cc872b;
      }

      .cls-27 {
        fill: #f4ba2e;
      }

      .cls-28 {
        fill: #face5a;
      }

      .cls-29 {
        fill: #030403;
      }

      .cls-30 {
        fill: #fde489;
      }

      .cls-31 {
        fill: #e7ab36;
      }

      .cls-32 {
        fill: #482c16;
      }

      .cls-33 {
        fill: #fcd96c;
      }

      .cls-34 {
        fill: #fcde78;
      }

      .cls-35 {
        fill: #fcdf79;
      }

      .cls-36 {
        fill: #c3812b;
      }

      .cls-37 {
        fill: #d4922e;
      }

      .cls-38 {
        fill: #fcdb74;
      }

      .cls-39 {
        fill: #fddc6f;
      }

      .cls-40 {
        fill: #8c5827;
      }

      .cls-41 {
        fill: #f3b92c;
      }

      .cls-42 {
        fill: #fce17e;
      }

      .cls-43 {
        fill: #fde078;
      }

      .cls-44 {
        fill: #fcdf76;
      }

      .cls-45 {
        fill: #fbdc77;
      }

      .cls-46 {
        fill: #8c5825;
      }

      .cls-47 {
        fill: #fbda72;
      }

      .cls-48 {
        fill: #fcdc78;
      }

      .cls-49 {
        fill: #c5812a;
      }
    </style>
  </defs>
  <g id="Layer_1-2" data-name="Layer 1">
    <g id="Generative_Object" data-name="Generative Object">
      <g>
        <path class="cls-29" d="M105.4,203.13h-9.54c-10.29-.56-20.26-2.63-29.91-6.29-9.08-3.44-17.57-8.07-25.34-13.9-14.57-10.92-26.1-25.81-33.03-42.67C2.36,127.55-.16,114.04,0,100.27c.14-11.55,2.13-22.99,6.09-33.83,6.95-19.04,19.45-35.81,36.02-47.52,11.67-8.24,25-14.01,39-16.9C90.79.03,100.64-.42,110.47.36c18.17,1.44,36,8.52,50.51,19.42,16.09,12.1,28.08,28.87,34.64,47.87,6.27,18.16,7.4,39.1,2.94,57.79-2.51,10.52-6.54,20.56-12.25,29.73-6.64,10.65-14.64,19.67-24.65,27.26-16.44,12.47-35.48,19.7-56.26,20.7Z"/>
        <g>
          <path class="cls-6" d="M197.28,113.28c-.98,10.31-4.37,21.46-8.87,30.98-3.64,7.71-8.41,14.73-13.82,21.28l-4.65,5.09c-12.95,13.3-30.44,23.05-48.63,26.99-14.16,3.07-27.87,3.02-42.01-.25-13.18-3.05-25.45-8.89-36.34-16.85-3.8-2.78-7.16-5.9-10.54-9.17-3.75-3.63-7.01-7.59-10.1-11.7-.28-.82-.18-1.43.36-2.14-.2-.59.21-1.17.65-.6l.37-.07c6.85,8.31,13.77,15.88,23.1,22.48,8.37,5.92,17.36,9.93,26.59,13,20.05,6.49,42.06,5.2,61.19-2.26,5.2-2.03,11.04-4.82,15.88-7.94,6.13-3.95,11.59-8.32,16.53-13.17s9.75-10.92,13.61-17.13c4.22-6.8,7.52-14.06,9.93-21.72,1.88-5.99,2.81-11.56,3.79-17.71.08-.51.28-1,.49-1.47l.08-.31c.14.17.16-.1.06-.81-.42-.12-.38-.3.02-.44.27-1.3,1.94-.94,1.57.46-.5.85-.62,2.82.55,3.15l.2.33Z"/>
          <path class="cls-16" d="M97.34,3.43c.87-.04,1.73,0,2.58.11l-.05.26c-1.14.57-2.41.75-3.81.56,1.25.35,1.15,1.4-.17,1.28.3.28.39.69.12,1.02-2.14.16-4.29.39-6.38.89-.4.21-.81.41-1.25.49-5.62,1.02-10.69,1.97-16.17,3.75-15.55,5.04-30.23,14.14-40.64,26.02l-.37.06c-.12.02-.21.03-.21.02-.04-.24-.02-1.35,0-1.28.1.53.22,2.29-.36,2.39-.24,0-.29-.14-.21-.33.11-.26.07.37-.13.54l-2.93,3.56.08.26-.08.37-.88.38c.23,0-.2.11-.16.34-11.69,15.42-19.11,35.38-19.39,54.8l-.33.21c-.21,3.11-.24,6.23-.07,9.37-1.41,1.32-1.71-1.84-1.74-2.8.21-.73.17-.9-.14-.52-.3.89-.69,1.19-1.18.91-.5-11.22.88-22.44,4.2-33.3,3.81-12.46,10.01-24.19,18.32-34.25,9.82-11.87,22.4-21.16,36.57-27.14,5.27-2.22,10.58-4.03,16.14-5.33,6.22-1.46,12.41-2.43,18.68-2.66Z"/>
          <path class="cls-48" d="M172.29,34.76c.17.59.09,1.05-.23,1.39.39.24.56.63.49,1.17.68.94.63,1.51-.15,1.68-.3-.33-.65-.59-1.03-.81l-.33.12C151.65,16.62,121.07,3.63,90.94,7.73c-.45.03-.89-.07-1.32-.17l1.43-.42c.53-.12.78-.27,1.27-.33l2.28-.29c.39-.05.66,0,1.01,0s.25-.41.14-.55c-.18-.25-.55-.17-.72-.2-.22-1.15,1.22.06,1.65-.66-.65-.86-1.88-.1-2.35-.91.46-.41.83-.19,1.3-.15.62.05,1.25-.18,1.89.13.76-.25,1.46-.12,2.23-.6l-2.41-.14c14.87-.73,29.36,2.05,43.08,8.15,8.25,3.66,15.89,8.5,22.79,14.26l4.32,3.95,3.78,3.81.99,1.16Z"/>
          <path class="cls-37" d="M197.28,113.28c-.69.04-1.45-.62-1.36-1.58.05-.52-.21-1.14.13-1.66.18-.28.43-.81.07-1.07s-.93.06-1.15.36l-.32-.16c.99-15.03-1.35-31.2-7.4-45.73-.18-.51-.25-1.05-.3-1.58-.83-1.44-1.58-2.95-2.24-4.53l.22-.3c-.19-.71.81-.45,1.15-.04.35-.4.7-.62,1.04-.67,3.39,6.62,6.02,13.6,7.8,20.91,1.44,5.9,2.37,11.66,2.82,17.72.42,5.75.21,11.37-.33,17.04l-.12,1.27Z"/>
          <path class="cls-31" d="M16.87,146.31c.11-.08.28-.14.33-.07.43.67.79,1.4.88,2.19l5.41,8.12-.16.34c-.18-.06-.42.11-.41.25,0,.11.14.41.06.52-.9,1.15-.27,1.55-.66,1.98l-1.97-2.87c0-.33,0-.66,0-.99-.39-.06-.68-.16-.98-.45l-4.39-7.36c-4.16-7.88-7.28-16.2-9.21-24.81-.08-.82-.07-2.01.93-1.02,1.58,6.37,4.09,12.53,7.28,18.13.97,1.98,1.95,3.95,2.94,5.9l-.04.15Z"/>
          <path class="cls-19" d="M7.01,112.61c-.27-.04-.46-.25-.56-.63l-.76-.62c-.49,2.25-.48,4.54.19,6.87.25-.57.7-.96,1.27-1.17-.02-.48.09-.78.35-.91.55,1.41.91,2.9,1.09,4.47,1.55,8.95,4.89,17.06,8.68,25.23.16.34-.04.64-.41.46l-4.44-8.23c-2.67-4.96-4.57-10.14-5.95-15.6-.05-.2-.12-.32-.21-.37-.07-.05-.27-.04-.29.04l-.22,1c-1.28-5.61-2.08-11.31-2.34-17.05.9-.25.51-1.03,1.31-1.41.16-.08.53.16.47.41-.13.52-.26,1.01-.03,1.54.4.94-.01,1.69.64,1.88.24.07.55-.18.53-.53l-.13-2.06c-.09-1.38-.16-2.56.12-3.91l.03-2.56c0-.2.06-.29.2-.33l.32.11c-.04,4.38.04,8.75.43,13.11l-.31.25Z"/>
          <path class="cls-28" d="M172.29,34.76l1.52,1.67c2.78,3.05,5.2,6.32,7.35,9.77-.24.32-.45.16-.69-.1-.06-.34-1.03-1.02-.71-.41,1.92,3.65,3.81,7.3,5.37,11.05l-.21.31,2.02,4.83c-.08.43-.26.35-.55.08-4.26-8.14-8.64-16.41-15.13-23.38l.11-.37c.66-.11,1.11.9,1.32.36s-.72-.8-.44-1.85l-.71-.57c.31-.2.51-.42.53-.64.02-.23-.08-.45-.2-.68.19-.08.29-.02.42-.06Z"/>
          <path class="cls-22" d="M181.17,46.19l3.03,4.85,2.92,5.3c-.2.37-.67.99-1.11.96-.33-.22-.72-.57-1.08-.26l-2.77-6.07c-.81-1.78-1.61-3.45-2.65-5.1-.14-.23-.03-.58.11-.68.61-.45.74.63,1.55,1Z"/>
          <path class="cls-6" d="M20.35,156.77l-.98-1.44,1.05.1c.51.3.34,1.03-.07,1.35Z"/>
          <path class="cls-16" d="M7.01,112.61l.5,3.54c.04.31.07,1.02-.17,1.18-.76.29-1.22.71-1.17,1.61-.63-.31-.63-.78-.73-1.28-.25-1.35-.62-2.69-.41-4.06.1-.68.33-1.29.23-2.03-.03-.24.15-.42.27-.48.37-.2,1.33.4,1.49,1.53Z"/>
          <path class="cls-43" d="M177.92,67.04c4.09,8.66,6.97,20.9,7.44,30.57l.02,8.98c-.71,12.35-4.65,26.56-10.89,37.3-2.9,4.99-6.18,9.68-9.97,14.07-5.68,6.59-12.43,12.18-19.84,16.72-11.38,6.96-24.75,11.15-37.98,12.17l-3.61.16c-4.67.2-9.32-.11-13.89-.74l-1.52-.46c-.25-.46.09-.65.5-.77,1.92.04,2-.16.25-.6-.32-.4-.13-.56.59-.47.47-.09.96-.17,1.44-.13,5.6.45,10.57.8,16.22.38,23.78-1.79,45.91-14.06,60.08-33.21,14.38-19.43,19.65-43.72,14.45-67.3-1.19-5.39-2.88-9.96-4.77-15.09-.17-.45-.22-.92-.25-1.4-.21-.5.6-.82,1.02-.97l.71.79Z"/>
          <path class="cls-36" d="M161.36,43.21l.85.67c1.63,2.12,3.19,4.3,4.69,6.52l-.16.34c.12.22.1.34-.05.34-.4-.25-.81-.52-1.12-.88-4.51-5.11-8.52-9.62-13.91-13.88-17.98-14.24-40.28-20.17-62.96-16.59-12.56,1.98-22.68,5.85-33.41,12.62-7.22,4.56-12.55,9.9-17.99,15.94-19.27,23.61-24.58,54.81-13.59,83.33,1.88,4.89,4.12,8.91,6.69,13.42.21.37.31.79.39,1.21-.06.14-.17.28-.3.25-.4-.1-2.86-3.77-3.23-4.4l.13-.37c-1.7-2.78-3.27-5.59-4.67-8.61-.89-1.92-1.7-3.67-2.36-5.72-6.89-21.38-4.78-44.91,5.52-64.84l2.48-4.34c2.98-5.23,6.57-9.99,10.53-14.38h.42c.06,0,.16-.12-.02-.2l1.34-1.5,2.92-2.76c5.82-5.5,12.5-9.94,19.75-13.48,11.45-5.59,24.01-8.61,36.79-8.86,12.37-.24,24.51,2.36,35.68,7.57,6.56,3.06,12.68,6.84,18.25,11.42,2.72,2.24,5.25,4.46,7.33,7.2Z"/>
          <path class="cls-33" d="M27.4,141.72l2.67,3.91c.19.28.38.57.72.62.38.3.75.61,1.04,1,3.42,4.68,6.5,8.82,10.65,12.95,8.23,8.19,17.88,14.47,28.69,18.7,5.59,2.19,10.7,3.32,16.52,4.53.47.1.9.31,1.31.53-.17.04-.38-.02-.54.15l2.13.77c-.6.81-1.77,0-2.81.67l1.41.71c-17.53-2.42-34.4-10.71-46.99-23.19l-2.63-2.6c-4.04-4.32-7.63-8.94-10.52-14.12l-2.55-4.58.89-.03Z"/>
          <path class="cls-5" d="M177.92,67.04c-.28-.08-.47-.26-.73-.52l-1,.7-.46-.49c-2.14-4.66-4.82-8.82-7.58-13.11-.24-.37-.37-.79-.48-1.22-.31-.56-.62-1.12-.93-1.66l-3.98-5.69-1.4-1.84c.71.14,1.33.66,1.85,1.23l1.64,1.77c4.54,5.16,8.35,10.84,11.29,17.06l1.78,3.77Z"/>
          <g>
            <path class="cls-22" d="M171.37,38.19l1.13,1.32c3.12,3.65,5.86,7.47,8.41,11.57l5.65,10.5c.11.21.11.34.38.29,5.08,12.15,7.95,24.82,8.28,38.11l-.26,9.35c0,.13.02.31-.02.44.12.56.07.93-.14,1.12-1.13,11.07-4.16,21.91-8.96,32.02-3.67,7.73-9.06,15.9-14.78,22.17l-1.16,1.28-2.67,2.79-.82.81-2.64,2.53c-3.9,3.4-7.88,6.53-12.26,9.33-3.17,2.02-6.28,3.93-9.72,5.43l-7.08,3.09-7.44,2.58c-7.91,2.39-16,3.59-24.26,3.92-3.41.14-6.57-.14-9.99-.39-6.77-.5-13.27-1.79-19.71-3.85l-9.12-3.33c-9.91-4.17-18.94-9.91-26.78-17.22l-1.81-1.61-3.36-3.4-1.81-1.9-2.9-3.42-4.16-4.84-5.55-8.34-.2-.92-.72-1.32c.09-.03.18-.2.11-.34-4.8-9.57-7.95-19.43-9.47-29.82-.13,0-.31,0-.34-.1-.11-.31-.45-2.8-.44-3.17l.29-.27-.3-4.26-.13-3.23v-5.98s.19-4.16.19-4.16l.27-3.45c.81-10.44,4.95-23.5,9.81-32.89,1.62-3.13,3.17-6.13,5.19-9.01l3.46-4.94c.22-.31.38-.6.79-.57l.3-.26c2.78.39,4.02,2.39,4.42,5.08.23-4.11,4.34-5.72,7.9-5.13l-.28.63c-3,3.52-5.69,7.21-8.27,11.06-7.58,11.32-12.4,26-13.43,39.98-1.05,14.25,1.31,29.4,8.31,41.86.93,1.4,1.65,2.86,2.16,4.37,0,.28-.1.35-.34.35,11.52,22.69,34.58,39.45,60.29,43.58l1.85.6c.4-.1.82-.2,1.23-.16,2.79.38,5.59.53,8.4.63,24.46.83,49.88-10.62,65.91-29.53,21.51-25.38,26.07-59.76,13.17-89.65v-.5c-.2-.23-.41-.43-.64-.61-3.77-8.35-9.04-17.1-15.91-23.22l-.74-.42c-11.88-12.97-29.24-21.82-46.71-24.52-27.03-4.18-56.15,5.8-74.23,25.41l-.39-.05c-3.04.38-6.4-.01-7.74-3.08-.26-.58-.73-2.21-.37-2.67.05-.13.11-.34.23-.47l.99-1.11,3.97-3.94c5.15-5.12,14.35-11.39,20.9-14.73,9.96-5.08,21.34-8.73,32.34-10.06,5.36-.65,10.74-1.04,16.23-.79,5.8.26,11.34,1.08,17,2.33,3.66.81,6.99,1.95,10.49,3.25,4.85,1.8,9.39,3.89,13.89,6.43l6.8,4.2c3.8,2.62,7.35,5.33,10.69,8.49l2.73,2.59,1.53,1.55,2.4,2.58Z"/>
            <path class="cls-37" d="M194.79,110.89c.04-.38,0-.76.14-1.12-.04.29.2.55.29.82s-.33.35-.42.3Z"/>
            <path class="cls-22" d="M34.77,33.96c-1.23,1.25-2.96,3.07-4.93,5.36-5.79,6.71-6.21,8.33-6.17,9.15.16,3.18,3.41,6.7,5.9,6.58,2.25-.11,2.36-3.02,7.6-8.61,2.38-2.54,3.35-3,3.57-4.44.49-3.23-3.54-6.4-5.96-8.04Z"/>
          </g>
          <g>
            <path class="cls-10" d="M166.69,51.08c.4.08.79.85.98,1.32,3.41,4.6,6.2,9.59,8.52,14.81,2.81,6.33,4.77,12.94,6.03,19.84,1.11,6.05,1.46,12.06,1.23,18.22-.17,4.57-.85,8.89-1.78,13.35-2.61,12.52-8.04,24.17-15.92,34.22-2.64,3.36-5.41,6.49-8.53,9.39-12.98,12.03-29.31,19.84-46.95,21.94-7.13.85-14.26.78-21.25-.22-10.26-1.47-20.13-4.95-29.19-10.14-3.4-1.95-6.54-3.98-9.62-6.39-7.66-5.98-14.2-13.07-19.41-21.18-6.87-10.45-11.24-23.44-12.62-35.96-.62-5.65-.6-11.14-.04-16.8,1.43-14.31,6.41-27.94,14.65-39.71,2.19-3.13,4.42-6.17,7.11-8.84l5.19-5.16c3.36-3.34,7.22-5.91,11.22-8.47,7.34-4.69,15.26-8.06,23.73-10.15,13.55-3.34,26.62-3.94,40.26-.58,12.73,3.13,25.11,9.62,34.92,18.3,4.25,3.76,8,7.85,11.47,12.21Z"/>
            <path class="cls-22" d="M167.67,52.4l-.98-1.32.05-.34c.35.5.94.97.93,1.66Z"/>
            <path class="cls-2" d="M172.51,64.1c2.92,5.11,4.77,10.76,6.33,16.48,1.59,5.85,2.36,11.64,2.66,17.67.38,7.56-.47,14.94-2.23,22.29-2.36,9.83-6.37,18.96-12.15,27.23-2.13,3.05-4.32,5.92-6.79,8.68l-4.35,4.38c-2.45,2.47-5.14,4.5-7.95,6.57s-5.86,3.92-9.04,5.66c-19.95,10.91-43.82,12.97-65.25,5.2-15.57-5.65-29.28-15.81-38.82-29.29-16.79-25.37-17.9-58-3-84.64,3.4-6.08,7.97-12.17,12.52-16.8,17.75-18.06,43.99-27.53,69.76-23.65,24.01,3.61,46.94,18.75,58.3,40.21Z"/>
            <path class="cls-49" d="M172.51,64.1c-2.74-4.81-5.85-9.21-9.55-13.26l-1.65-1.81c-5.23-5.74-11.47-10.52-18.23-14.47-11.79-6.89-25.06-10.94-38.79-11.18-13.88-.24-27.64,3.14-39.85,9.6-5.71,3.02-10.9,6.7-15.71,10.9l-2.02,1.89-2.03,2-3.55,3.89c-4.18,5.03-7.86,10.42-10.76,16.33-5.68,11.6-8.8,24.33-8.61,37.3.23,15.2,4.83,29.94,12.77,42.78.21.33.3.61.38.92-5.68-7.65-9.88-16.31-12.43-25.63-2.26-8.26-3.38-16.71-2.96-25.25.26-5.2,1.05-10.15,2.18-15.21,2.13-9.51,5.95-18.47,11.39-26.54,2.29-3.39,4.6-6.57,7.39-9.55l2.89-3.09c9.21-8.98,20.3-15.77,32.65-19.61,22.12-6.87,45.39-4.89,65.43,6.89,4.53,2.66,8.74,5.64,12.65,9.15,7.58,6.8,13.92,14.79,18.39,23.96Z"/>
            <g>
              <path class="cls-13" d="M144.42,104.76c3.8-.97,7.69.38,10.09,3.55,3.5,4.6,3.7,10.99,2.44,16.56-1.45,6.39-5.19,11.83-11.65,13.64-.18,1.55-.39,2.9-.86,4.36-1.95,6.11-5.24,11.59-9.85,16.14-6.62,6.53-15.2,10.94-24.3,12.89-13.06,2.79-26.81,1.09-38.5-5.24-7.26-3.93-13.36-9.63-17.32-16.9-1.92-3.53-3.32-7.18-3.8-11.19-.06-.47-.34-.84-.75-1.03-2.59-1.14-4.67-2.94-6.18-5.29-1.21-1.89-2.27-3.69-2.82-5.89-1.43-5.61-1.64-11.31,1.22-16.45,2.22-3.98,6.3-6.31,10.87-5.2-.08-1.76.16-3.29.31-4.92l.24-2.65c-1.2-.59-1.04-1.94-.67-3.45l6.23-25.35,4.69-20.43c.59-2.57,1.72-4.66,3.78-6.29.89-.7,1.75-1.35,2.79-1.89,2.95-1.53,5.99-2.52,9.23-3.35,4.44-1.15,8.8-1.72,13.4-2.11,10.01-.87,19.88,0,29.53,2.71,6.93,1.95,13.96,5.3,16.89,12.14,1.34-.49,2.59-.34,3.8.27,2.44,1.23,3.78,3.76,3.26,6.48-.08.4-.27.91-.07,1.29l2.23,4.24c2.44,4.63,8.72,13.97,12.49,17.02l2.75,2.23c.97.79,1.32,1.7.79,2.95-.62,1.47-1.76,2.83-3.06,3.81-.74.56-1.55.49-2.39.33.05.47.26,1.19-.05,1.45-1.58,1.33-4.88,3.14-6.64,2.18-.22.53-.58.78-1.05.95-1.66.6-4.54.38-6.08-.63l-.41-2.49-5.48-28.71c-.02-.12-.12-.23-.18-.21-.06.01-.05.18-.04.28l.78,5.2,2.07,15,1.29,8.24,1.03,6.26c.12.74,0,1.48-.34,2.12-.52.21-.62.68-.36,1.15l.61,6.22Z"/>
              <g>
                <path class="cls-27" d="M121.3,42.17c.11.04.22.09.32.16.09.06.18.13.22.21.75,1.45,1.08,3.2,1.32,4.8,1.34,11.72,2.65,23.45,3.95,35.18-.09.18-.3.19-.65.01-4.44-2.03-9-3.4-13.84-4.33-12.29-2.34-24.94-2-36.97,1.5-5.58,1.63-10.66,4.34-15.09,7.99l-.34-.22c2.79-13.3,6.11-27.12,9.34-40.5,2.48-3.16,7.52-4.55,11.35-5.49,12.99-3.19,26.78-2.7,39.77.34l.61.34Z"/>
                <path class="cls-12" d="M126.48,82.54c.06,0,.28.04.32,0,.05-.06.03-.24.02-.4l-2.07-17.96-1.85-16.5c-.22-2-.72-3.83-1.58-5.51-.44-.04-1.48-2.13-1.48-2.4,0-.13.1-.24.2-.34,3.41.77,6.61,1.86,9.67,3.51,1.9,1.03,3.68,2.26,4.63,4.23.41.85.49,1.85.62,2.82l2.83,20.18,3.48,22.88c-2.66-3.4-6.57-6.17-10.3-8.27l-4.47-2.24Z"/>
                <path class="cls-24" d="M120.02,39.42l1.29,2.74c-5.19-.99-10.36-1.97-15.69-2.36l-1.96-.14-7.04.03c-7.55.47-17.42,1.6-24.02,5.18-1.06.58-2.44,1.41-2.9,2.61l-7.31,31.51-1.61,7.16c-.12.54-.26,1.04-.21,1.56l-3.96,3.64,10.08-42.82c.56-3.14,3.08-5.3,5.89-6.58,3.08-1.41,6.19-2.36,9.53-3.05,4.86-1.01,9.61-1.57,14.61-1.83,7.91-.41,15.65.47,23.3,2.35Z"/>
                <path class="cls-42" d="M134.83,92.03c-.46-.13-.82-.43-1.24-.72-2.84-1.94-5.81-3.4-9.02-4.7-5.98-2.42-12.15-3.85-18.59-4.47s-12.76-.57-19.16.14c-4.28.47-8.35,1.31-12.36,2.82-3.67,1.39-7.07,3.07-10.1,5.57-.57.47-.88,1.28-1.09,1.98l-2.18,7.19c-1.35,5.32-2.18,10.64-2.93,16.07-.22,1.62-.62,4.12-1.39,4.25-.24.04-.62-.05-.76-.28-.39-.62-.99-.73-1.56-1.05-1.04-.57-1.99-1.21-3.23-1.26-2.29-.11-2.36,2.4-3.06,2.36-.56-.03-.54-.87-.47-1.25.35-.18.59-.56.81-.96.6-1.15,1.76-1.75,3.06-1.47,1.14.24,2.13.93,2.82,1.87.46.63,1.16.96,1.98,1.09.36-.03.62-.75.66-1.18l.62-5.66c.84-7.69,2.49-15.33,5.19-22.58,8.18-6.51,17.92-8.83,28.25-9.5,7.47-.49,14.78-.03,22.11,1.42,5.49,1.08,10.64,2.82,15.58,5.4,2.02,1.05,3.91,2.09,5.63,3.6.36.32.31.98.43,1.35Z"/>
                <path class="cls-22" d="M155.24,83.22l1.67,2.69c.27.43.48.89.41,1.41-1.31.74-2.64,1.3-4.1,1.7l-3.77-7.09,1.22,7.73-3.08.13c-.03-.06-.07-.13-.1-.15.11-.31.45-.42,1.04-.34-2.16-9.07-4.37-18.08-6.63-27.04.02-.38.03-.39.33-.6s1.81-.69,2.19-.55c.35.14.61.48.78,1.03l6.52,15.11c1.12,2.04,2.3,4.04,3.53,5.98Z"/>
                <path class="cls-26" d="M155.24,83.22l-.73-.89c-1.9-2.3-3.12-4.89-4.3-7.65l-5.3-12.41c-.18-.42-.46-.72-.49-1.16-.07-.4,0-1.17.4-1.35l1.66,3.03c4.1,7.45,8.72,14.91,15.59,19.97-.84,1.17-1.64,2.13-2.75,2.99l-4.73-4.79c-.03.88.55,1.49.65,2.27Z"/>
                <path class="cls-41" d="M99.17,144.64c1.14,1.87,3.07,3.09,5.18,3.75l.26.44c.28.06.28.12,0,.19.05.12.11.3.03.35-3.46,2.58-8.56,3.26-12.67,1.85-1.15-.39-2.81-.98-3.33-2.05-.25-.23-.18-.42.1-.58,2.95-1.26,5.79-2.88,7.32-5.9.17-.38.39-.59.65-.65.78.91,1.51,1.83,2.44,2.58Z"/>
                <path class="cls-25" d="M96.73,142.05l-.61,1.35c-1.02,1.46-2.26,2.66-3.66,3.76l-2.82,1.38c-.39.19-.79.26-.98.64-.71.27-1.42.59-2.12.96l-.34-.19c-10.61,3.03-23.14.86-30.48-8.19.37,2.61,1.25,4.81,2.05,7.13l.2.37c.04.07.04.21-.15.21-2.27-3.68-3.8-7.79-4.44-12.15-.06-.44-.07-.81.24-1.12,1.31,4.49,4.73,7.75,8.72,9.93,8.66,4.73,19.74,5.25,28.46.47,2.1-1.15,3.83-2.8,5.45-4.53.12-.13.2-.28.35-.2.06.03.1.11.14.16Z"/>
                <path class="cls-21" d="M54.35,110.44l-.66-.7c-1.7-.73-3.71-.82-5.38.05-2.15,1.11-3.78,4.2-4.08,6.71-.48,4.13-.03,9.74,1.79,13.52.11.24.31.43.07.61-.86-1.3-1.62-2.65-2.12-4.21-1.67-5.15-1.93-11.27,1.08-15.86,2-3.05,5.54-4.12,8.68-2.32.5.62.44,1.55.63,2.2Z"/>
                <path class="cls-3" d="M144.82,59.75c.03.42.01,1.11-.4,1.35-.69.41-1.42.69-2.25.88l2.14,8.49,4.61,19.05c-.48.19-.97.08-1.43.11l-5.17-23.15-1.39-5.9c1.33-.07,2.57-.36,3.62-1.27.16-.02.2.31.27.43Z"/>
                <path class="cls-8" d="M153.52,112.17c-.09.12-.07.21-.06.39-1.57-2.2-3.97-3.53-6.73-3.32-1.68.13-3.3.86-3.9,2.47l-1.98,5.29c-.09.25-.1.4.07.54.14.06.13.11-.02.16l-.72.31c-.48-.29-.47-.88-.64-1.21.5-.44.68-.96.81-1.63.37-1.99.88-3.96,2.15-5.6,1.12-1.45,3.03-2.25,4.84-2.14,2.98.18,5.07,2.2,6.19,4.73Z"/>
                <path class="cls-15" d="M140.64,96.39c.96,3.8,2.07,9.42.32,13.05-.7-5.43-1.56-10.65-3.25-15.84l2.93,2.79Z"/>
                <path class="cls-7" d="M56.07,107.86c-.49-.21-.48-.76-.55-1.26-.47-3.62-.05-7.18.8-10.72.9-1.1,1.6-2.22,2.95-3.09-1.14,3.45-1.98,6.83-2.52,10.42l-.69,4.64Z"/>
                <path class="cls-11" d="M143.08,52.69c.96,1.98-.23,3.58-2.18,4.13-.61.17-1.74.41-2.25.03-.57-.86-.73-1.98-.52-2.94.3,0,.42.23.35.73l.52.2c.28-1.48,1.57-3.14,3.22-2.83.34.17.58.32.86.68Z"/>
                <path class="cls-17" d="M138.65,56.85l1.93-.3c.92-.14,1.69-.59,2.09-1.25.52-.87.63-1.74.41-2.61.7.9.97,2.1.58,3.22-.37,1.06-1.27,1.79-2.22,1.95-1.09.18-2.19-.09-2.79-.99Z"/>
                <path class="cls-30" d="M142.22,52.01c-1.56.37-2.85,1.53-2.92,3.27-.39-.13-.73-.23-1.05-.43-.16-.19-.08-.68-.12-.94.21-.99.8-1.65,1.53-1.96.93-.39,1.77-.33,2.55.06Z"/>
                <path class="cls-23" d="M149.57,118.21c.67.27.81,1.36.86,2.05s0,1.61-.39,2.13c-.42,2.35-1.16,4.68-2.74,6.53-.8.94-2.09,1.31-3.35,1.58l-2.53-9.76c-.06-.22-.04-.5.05-.64.16-.24.87,0,1.02-.42.04-.11-.02-.3-.05-.44-.34-.34.46-1.23.76-1.56,2.56-2.7,4.09-2.34,6.47.09.08.08-.03.29-.11.42Z"/>
                <path class="cls-10" d="M88.66,149.18c4.07,2.84,9.3,3.31,13.81,1.06l2.15-1.21c.48-.27,2.63.53,2.44,1.31-3.82,3.7-8.86,5.19-14.18,3.91-2.04-.49-3.86-1.53-5.5-2.66l-.87-.77c-.26-.23-.34-.55-.31-.87l1.31-.66c.38-.19.8-.36,1.15-.11Z"/>
                <path class="cls-9" d="M150.21,116.37c.38.46.57,1.94-.2,2.1-.24.05-.32,0-.44-.26-.17-.41-.78-.71-1.12-1.1-.55-.64-1.43-1.11-2.29-.94-1.17.24-2.17,1.01-2.87,1.94l-.84,1.13c-.13.12-.3.29-.47.29-.3.01-1.47-.92-1.07-1.84.02-.05.02-.11.02-.16.8-.91,1.27-2.08,2.42-3.07s2.52-1.56,3.98-1.22c1.54.36,2.54,1.69,2.89,3.12Z"/>
                <g>
                  <path class="cls-27" d="M134.83,92.03c2.34,6.76,4.05,16.94,4.3,24.21.01.37.32.43.4.57.3,0,.53.28.68.82.29-.17.52-.15.68.08l.67,1.22c.23.22.52.32.88.32.94.27-.02,1.18-.71,1.06.72,3.23,1.53,6.47,2.42,9.7,3.51-.11,4.86-4.25,5.49-7.21l.4-.41c.18-.17.22.23.17.32s.07-1.01.16-1.3c.35-1.78.29-3.46-.16-5.04l-.38-.16c-1.93-4.99-6.69-2.3-8.48,1.32h-.43c-.49.13-.47-.1-.41-.52l2.14-5.7c2.22-3.9,8.67-2.74,10.7.84.1.18.14.37.03.24-.11-.13-.06-.26.14-.23,2.24,5.06,1.6,11.4-.9,16.4-.79,1.59-1.8,2.86-3.01,4.12-1.43,1.5-3.14,2.52-5.12,2.96-.72-.04-1.42-.02-2.11.06l-.17.18c-.8,9.92-6.5,18.36-13.73,24.42-2.15,1.55-4.36,3.03-6.84,4.25-6.24,3.09-12.94,4.99-19.92,5.4-9.7.56-19.24-1.31-27.85-5.7-3.29-1.68-6.12-3.72-8.87-6.15s-5.22-5.44-7.19-8.64c-1-2.11-1.77-4.46-2.32-7.04.03-.69.09-1.08.62-.62,7.15,8.41,18.9,10.75,29.28,8.02l.79.12c.37.44.78.86,1.23,1.26l-.06.38c-.13.28-.14.35-.03.21,5.91,6.28,15.8,5.03,20.75-1.74,10.25,2.47,22.27.97,29.3-7.58,3.03-3.68,3.97-7.9,3.43-12.54-.06-.49.17.11-.14.23-.31-2.18-1.58-4.14-3.43-5.4-1.3-.89-3.46-.89-3.59.26-.03.27,1.74,1.41,1.92,4.11.1,1.54-.65,2.77-1.61,3.89-3.25,3.79-10.03,3.57-13.83,1.07l-3.59-2.37c-3.44-2.03-7.49-2.62-11.26-1.27-.55.2-.99.2-1.55-.26-.92,2.66-3.1,4.42-5.83,4.83s-5.15-.28-7.05-1.98c-2.11-3.52.95-6.66,4.67-6.65,4.6.14,5.3-.13,2.08-.81-3.82-.32-8.26.78-7.72,5.45l-.24.36c-.24-.72-.86-.56-1.38-.76-1.9-.76-3.71-1.02-5.77-.92-2.59.12-4.87,1.16-7.07,2.5l-4.21,2.56c-1.11.68-2.47.75-3.79.89-3.24.36-7.45-1.17-8.95-3.79-.66-2.14-.32-4.37,1.08-6.13-.11-.32-.14-.6-.09-.83-.53-1.58-3.35-.82-4.76.8-2.26,2.59-3.04,6.18-2,9.64-2.73-.37-5.16-2.53-6.64-4.76-2.2-4.3-2.96-10.21-2.04-15,.8-4.16,4.03-7.61,8.52-6.59,1.05.24,1.44.38,1.78,1.4.39,1.34.55,2.72.43,4.31-1.23-1.51-3.13-2.16-4.82-1.41-2.01.89-3.1,2.79-2.67,4.94.04.19.24.34.4.4l.3.16c-.07.33-.01.59.16.77,1.51-2.99,3.29-2.8,5.97-1.33.7.38,1.66,1.06,2.28,1.52.7.46,1.11-1.81,1.18-2.26,1.06-8.53,2.77-17.28,5.44-25.17.33-1.24,1.02-1.93,2.09-2.68,8.07-5.7,17.05-7.62,26.85-8.13,14.55-.76,27.62,1.35,40.31,8.54.89.51,2.02,1.15,2.57,1.97Z"/>
                  <g>
                    <path class="cls-39" d="M87.38,151.59h.59c5.62,4.06,13.36,3.65,18.45-1.09l.65-.16.03-.34c-.26-.49-.47-1.14.24-1.2,7.6,2.25,15.32,1.9,22.58-1.61,4.65-2.25,8.4-5.97,10.28-10.83.77-2,.79-4.17.5-6.18.06-.15,0-.34.17-.54.77,3.04.44,6.26-.92,9.18-.6,1.28-1.21,2.48-2.07,3.59-6.66,8.63-19.43,10.68-29.69,7.92-.65,1.16-1.52,1.91-2.46,2.67-1.87,1.51-3.89,2.51-6.26,2.97-4.54.86-9.14-.48-12.3-3.84-.1-.11-.12-.34-.1-.44.03-.12.19-.16.32-.09Z"/>
                    <path class="cls-1" d="M144.49,135.66c-1.07.24-1.79-.11-2.05.27-.25.36.14,1.64-.27,3.67-1.61,8.05-7.16,16-13.7,20.72-.04-.43.37-.5.6-.73l3.61-3.64c1.68-1.69,2.98-3.58,4.24-5.61,2.67-4.31,4.36-9.02,4.95-14.07.15-1.31,1.13-.64,2.61-.61Z"/>
                    <path class="cls-34" d="M90.87,133.07c-.5-.45-1.02-.98-1.21-1.64-.58-2.03.36-4.1,2.2-5.19,1.44-.85,3.01-1.04,4.69-.98,1.1.04,2.19-.03,3.09.65.19.15.36.35.29.58-.04.14-.27.24-.48.24h-3.72c-1.05.02-2.05.3-3,.71-2.22.94-2.59,3.36-1.86,5.64Z"/>
                    <path class="cls-47" d="M58.49,131.91c-.91-1.58-1.23-3.68-.43-5.42l1.42-1.54c.13.17.4.36.42.61.05.42-.22.58-.44.9-1,1.48-1.18,3.38-.87,5.12.03.16-.01.27-.11.32Z"/>
                    <path class="cls-10" d="M128.03,105.45c.83,1.2-.68,2.5-1.96,1.71-5.31-4.03-12.45-4.64-18.05-.87-.64.26-1.4.05-1.34-.71-.26-.66-.31-1.39-.02-2.15.97-2.56,2.88-4.59,5.45-5.68,4.8-2.05,10.55-.78,13.95,3.15,1.18,1.36,1.95,2.88,1.96,4.55Z"/>
                    <path class="cls-10" d="M125.03,117.61c.32,1.45-.81,1.93-2.15,1.44-4.32-3.01-9.96-3.71-14.41-.35-.66.36-1.79.38-1.77-.55-.55-1.08.73-2.79,1.81-3.66,4.45-3.61,10.77-3.36,14.98.48.86.78,1.16,1.63,1.55,2.64Z"/>
                    <path class="cls-14" d="M128.03,105.45s.12-.12.12-.18-.21-.25.12-.37l.34,1.38c.18.76-.15,1.4-.7,1.72-.62.36-1.25.25-1.83-.13-5.9-3.88-11.69-3.94-18.05-.97-.39.18-.97-.03-1.2-.31-.21-.25-.39-.66-.15-1.01.26.44.84.66,1.34.35,1.51-.92,3.07-1.7,4.83-2.1,4.6-1.05,9.21.07,13,2.82.46.34,1.06.63,1.59.32s.59-.99.59-1.51Z"/>
                    <path class="cls-4" d="M125.03,117.61c.17.45.68.74.41,1.46-.36.96-1.82,1.28-2.86.67-4.42-2.56-9.55-2.88-13.9-.11-.5.32-1.24.23-1.68-.14-.27-.29-.56-.86-.29-1.34.5.54,1.15.61,1.78.16,3.09-2.21,6.6-2.68,10.27-1.66,2.82.78,4.41,2.82,5.5,2.21.41-.23.64-.75.78-1.25Z"/>
                    <path class="cls-18" d="M150.04,122.4c.25-1.39.09-2.8-.47-4.18.36.03.65-.14.7-.53.07-.48.05-.9-.06-1.31,0-.24.28-.17.21.02.88,2.17.44,4.4-.23,6.49-.15-.21-.09-.39-.16-.48Z"/>
                    <g>
                      <path class="cls-10" d="M84.68,111.04c.99,2.08.89,5.06.18,7.28-.87,2.7-3,5.26-6.06,4.91-1.46-.17-2.96-1.04-3.37-2.47-2.72-4.06-2.36-10.93,1.43-13.99,1.73-1.4,3.96-1.17,5.48.3,1.17,1.12,1.97,2.39,2.34,3.97Z"/>
                      <path class="cls-45" d="M75.43,120.77c.9,1.35,2.41,2.21,4,2.17,1.16-.03,2.29-.55,3.11-1.35,2.67-2.59,2.97-7.02,2.14-10.55.04-.03.08-.07.15-.11.53.59.55,1.35.69,2.14.49,2.88.19,5.74-1.32,8.24-1.39,2.3-4.25,3.39-6.7,2.21-1.07-.52-1.74-1.58-2.24-2.58-.04-.1.07-.2.17-.17Z"/>
                      <path class="cls-44" d="M80.27,113.4c-.5.53-1.27.75-1.83.48-.87-.42-1.23-1.32-1.36-2.12-.25-1.57.99-2.99,2.27-2.91.4.02.81.33,1.14.77.81,1.04.74,2.76-.22,3.79Z"/>
                    </g>
                    <g>
                      <path class="cls-32" d="M87.31,96.92c.85,1.27.71,4.59-1.64,3.66-2.83-1.66-5.25-2.75-8.71-2.26-2.62.37-4.94,1.63-6.88,3.4-.59.37-1.38.73-1.84.02-1.19-2.25.03-4.91,1.57-7.08,3.43-4.82,10.27-5.98,14.91-2.24,1.45,1.17,2.28,2.77,2.59,4.5Z"/>
                      <path class="cls-35" d="M68.24,101.75c.64.22,1.36.01,1.9-.48,3.04-2.76,7.15-4.03,11.21-3.04,2.63.64,4.24,2.49,5.39,2.18.84-.23.81-2.11.57-3.48.04-.07-.1-.23.12-.4.5,1.1.85,2.29.71,3.57-.09.81-.74,1.35-1.56,1.26-2.01-.24-4.28-2.55-9.29-1.95-2.57.31-4.93,1.26-6.81,3.05-.43.41-.97.61-1.57.3-.33-.17-.5-.66-.68-.99Z"/>
                      <path class="cls-46" d="M81.71,96.34c-3.08-.91-6.31-.71-8.96.93l-2.87,1.77c.91-3.5,3.27-5.58,6.63-6.55,2.58-.36,5.27.14,7.32,1.78,1.08.86,1.38,2.27,1.61,3.61l-3.74-1.55Z"/>
                    </g>
                  </g>
                </g>
                <g>
                  <path class="cls-40" d="M59.78,141.67c-2.96-2.79-4.56-6.55-4.18-10.65.78,2.31,2.21,4.16,4.38,5.37,4.82,2.7,10.79,2.13,15.21-1.15l3.78-2.2c2.95-1.72,8.31-.99,9.52.96.63,1.02,1.52,1.83,2.62,2.39,1.65.84,3.51,1.51,5.35,1.42,2.28-.11,4.39-.59,6.23-1.88,1-.69,1.6-1.69,2.34-2.66,4.27-2.23,8.88-.73,12.58,2.08,1.97,1.5,4.1,2.22,6.51,2.73,3.96.84,7.88-.12,10.93-2.88,1.67-1.51,2.46-3.59,2.83-5.96,1.06,4.34.34,7.72-2.75,11.08-2.75,2.99-6.14,5.11-10.04,6.24-4.88,1.42-10.62,1.64-15.53.38-3.02-.77-5.85-1.88-8.37-3.73-1.68-1.23-2.93-2.77-3.98-4.56-.15-.26-.76-.7-.87-.44-.22.6-.42.7-.8,1.12l-1.89,2.11-1.38,1.2c-1.68,1.46-3.43,2.59-5.57,3.32-8.61,2.95-19.8,1.79-26.95-4.29Z"/>
                  <path class="cls-38" d="M105.77,148.23c.68.7-.64.85-1.15.6-1.32-.49-2.7-1.01-3.88-1.92-.71-.55-2.01-2.33-1.56-2.28,1.96,1.59,4.21,2.75,6.59,3.6Z"/>
                  <path class="cls-20" d="M107.33,148.79c-.33.53.02,1.27-.27,1.55-.63-.58-1.36-.93-2.22-1.04l-.23-.27v-.19c.42.16,1.13-.14,1.15-.6l1.56.56Z"/>
                </g>
              </g>
            </g>
          </g>
        </g>
      </g>
    </g>
  </g>
</svg>