<?xml version="1.0" encoding="UTF-8"?>
<svg id="Layer_2" data-name="Layer 2" xmlns="http://www.w3.org/2000/svg" viewBox="0 0 313.08 115.63">
  <defs>
    <style>
      .cls-1 {
        fill: #fefeff;
      }

      .cls-2 {
        fill: #11402b;
      }

      .cls-3 {
        fill: #fdfefe;
      }

      .cls-4 {
        fill: #fefefe;
      }

      .cls-5 {
        fill: #fff;
      }

      .cls-6 {
        fill: #08723b;
      }

      .cls-7 {
        fill: #ecb534;
      }

      .cls-8 {
        fill: #fefffe;
      }

      .cls-9 {
        fill: #feffff;
      }
    </style>
  </defs>
  <g id="Layer_1-2" data-name="Layer 1">
    <g>
      <g>
        <path class="cls-2" d="M302.83,38.27c14.21-5.02,11.27-20.22-.83-25.71-3.5-1.67-6.33-.36-9.04,1.89-7.29,6.05-15.84,10.21-24.91,12.96-1.2.36-2.42-.54-2.39-1.8.7-11.19-20.09-8.95-26.63-1.47-.64,1.19-2.36,1.3-3.14.2-1-2.34-4.68-2.78-5.27-5.22.02-16.65-25.65-16.15-25.25.5-3.94,5.14-8.07,7.82-6.05,15.4.61,6.4-9.82-4.2-20.48.7-3.62,2.57-13.92,8.13-14.89,3.41.12-4.42.84-9.58,1.37-13.82,3.53-4.92,2.98-11.19-1.91-15.14-3.06-15.35-21.77-10.37-23.13,3.56-.13.76-2.1,1.89-2.68,1.4-9.27-8.84-24.5.1-21.55,11.91.63,3.84-4.57,1.63-5.19.97l-.13-.5c-3.81-13.87-22.98-10.53-24.76,1.74-.22,1.49-2,2.11-3.1,1.08-5.75-5.41-11.97-9.5-18.47-5.01-.97.67-2.31.32-2.77-.77-5.75-13.56-26.22-10.85-34.07.32-.52.74-1.49.99-2.3.59C2.53,14.45-8.23,55.49,9.76,67.43c.74.49,1.01,1.43.68,2.25-4.49,10.9,7.94,21.43,18.27,15.68,10.99,4.49,24.35-2.23,20.26-15.39-.29-.77.01-1.68.71-2.11.7-.45,1.61-.31,2.22.25,5.44,5.01,12.47,7,19.52,6.39-2.31,20.96,12.94,40.54,34.63,40.38,0,0,102.51,0,102.51,0,22.22.18,37.2-20.16,34.62-41.43,4.78,1.88,6.58,5.69,13.05,2.72,15.54,5.02,35.29,4.66,48.57-6.11,15.09-18.32-7.05-29.39-1.98-31.79Z"/>
        <path class="cls-6" d="M208.86,115.63c-.1,0-.2,0-.3,0h-102.5c-10.03.07-19.21-3.98-25.93-11.43-7.01-7.77-10.46-18.25-9.53-28.89-7.28.41-14.08-1.94-19.2-6.65-.38-.35-.92-.42-1.31-.17-.41.25-.58.77-.42,1.22,1.73,5.57.63,10.49-3.08,13.9-4.38,4.01-11.5,5.04-17.84,2.59-5.04,2.64-11.07,1.85-15.45-2.05-4.35-3.87-5.71-9.52-3.56-14.75.21-.5.04-1.05-.4-1.34C-1.43,60.9-2.4,43.13,3.94,32.03c4.96-8.69,13.06-11.39,21.65-7.22.48.23,1.05.09,1.36-.35,4.62-6.57,13.65-10.55,21.96-9.66,6.34.67,11.1,4.04,13.41,9.48.13.3.37.52.68.61.33.09.68.04.97-.16,7.12-4.93,13.81-.2,19.41,5.08.31.29.72.38,1.12.24.39-.14.66-.47.72-.89,1.02-7,7.34-11.03,13.05-11.38,5.02-.3,11.11,2.03,13.17,9.55l.07.28c.63.43,2.7,1.21,3.52.78.28-.15.37-.56.27-1.21-1.41-5.63,1.11-11.3,6.42-14.4,5.43-3.16,11.81-2.48,16.29,1.73.4,0,1.39-.59,1.52-.92.81-8.4,7.47-13.28,13.31-13.57,4.4-.22,9.62,2.24,11.23,9.75,4.85,4.08,5.64,10.53,1.95,15.83l-.17,1.31c-.5,3.9-1.06,8.31-1.17,12.16.12.51.38.81.83.99,2.45.96,9.17-2.31,12.87-4.94l.12-.07c6-2.75,11.93-.82,15.86.46,1.67.54,3.57,1.16,4.02.79.06-.05.25-.27.17-1.14-1.71-6.55.98-9.74,4.11-13.42.63-.75,1.29-1.52,1.94-2.36-.04-4.89,2.09-8.88,6.03-11.23,4.34-2.6,10.2-2.68,14.56-.21,3.95,2.24,6.14,6.18,6.16,11.08.27.94,1.21,1.53,2.29,2.21,1.08.68,2.3,1.45,2.88,2.73.22.27.53.4.91.39.39-.02.74-.24.92-.57l.09-.14c4.77-5.45,16.44-8.21,23.12-5.46,3.33,1.37,5.04,4.02,4.83,7.47,0,.32.15.64.43.86.29.22.65.28.99.18,9.63-2.92,17.92-7.24,24.65-12.82,2.38-1.98,5.66-3.99,9.84-1.99,6.69,3.04,11.01,9.2,10.74,15.33-.23,5.31-3.86,9.59-9.95,11.75-.18.09-.28.18-.3.27-.15.59,1.01,2.17,2.14,3.7,3.82,5.19,10.94,14.84.43,27.6l-.11.11c-14.31,11.61-34.64,10.9-49,6.33-4.84,2.13-7.35.59-10-1.04-.7-.43-1.42-.87-2.21-1.27.96,10.89-2.48,21.57-9.55,29.48-6.63,7.41-15.73,11.48-25.66,11.48ZM208.56,114.13c.1,0,.19,0,.29,0,9.5,0,18.21-3.89,24.54-10.98,7.07-7.91,10.37-18.7,9.05-29.61l-.15-1.25,1.17.46c1.4.55,2.57,1.27,3.61,1.9,2.65,1.63,4.57,2.81,8.86.83l.27-.12.28.09c13.98,4.51,33.88,5.32,47.81-5.94,9.7-11.83,3.3-20.51-.53-25.69-1.63-2.21-2.71-3.68-2.39-4.96.14-.55.53-.98,1.15-1.28l.07-.03c5.59-1.97,8.79-5.67,8.99-10.42.24-5.52-3.73-11.11-9.88-13.9-2.75-1.32-5.14-.8-8.25,1.79-6.88,5.71-15.35,10.12-25.17,13.1-.8.24-1.67.08-2.34-.42-.67-.51-1.04-1.28-1.02-2.11.18-2.86-1.13-4.88-3.9-6.02-6.05-2.49-17,.08-21.37,5-.44.75-1.22,1.22-2.1,1.27-.9.06-1.75-.35-2.26-1.07l-.08-.14c-.38-.9-1.33-1.5-2.34-2.14-1.21-.76-2.58-1.63-2.97-3.2l-.02-.18c0-4.39-1.91-7.9-5.4-9.88-3.91-2.22-9.16-2.14-13.05.19-3.52,2.11-5.4,5.72-5.3,10.18v.26s-.15.21-.15.21c-.72.94-1.44,1.8-2.14,2.62-3.09,3.66-5.33,6.3-3.78,12.13l.02.12c.12,1.21-.12,2.03-.72,2.51-1.09.87-2.91.28-5.42-.54-3.91-1.27-9.26-3.02-14.71-.55-2.15,1.51-10.49,6.55-14.23,5.07-.94-.37-1.55-1.12-1.77-2.16l-.02-.08v-.09c.11-3.95.68-8.44,1.19-12.4l.21-1.68.11-.15c3.39-4.73,2.66-10.53-1.77-14.11l-.21-.17-.05-.27c-1.15-5.77-4.81-9.07-9.74-8.81-5.22.26-11.17,4.66-11.91,12.3-.16.98-1.37,1.73-2.14,2.02-.94.35-1.49.13-1.77-.12-4.88-4.66-10.93-3.79-14.63-1.64-4.72,2.75-6.97,7.77-5.71,12.8.31,1.88-.54,2.6-1.08,2.86-1.72.86-4.76-.54-5.38-1.19l-.13-.14-.17-.69c-1.82-6.63-7.19-8.71-11.63-8.43-5.11.32-10.76,3.89-11.66,10.1-.14.97-.8,1.77-1.72,2.09-.92.32-1.93.1-2.64-.57-5.42-5.11-11.3-9.24-17.53-4.94-.66.46-1.47.59-2.24.37-.74-.22-1.35-.75-1.65-1.46-2.09-4.92-6.42-7.96-12.19-8.58-7.79-.83-16.25,2.89-20.57,9.03-.73,1.04-2.1,1.39-3.24.84-11.25-5.46-17.52,2.8-19.69,6.61C-.77,43.3.06,60.09,10.18,66.81c1.03.68,1.43,2.01.95,3.16-2.28,5.52.14,10.36,3.17,13.05,3.99,3.55,9.5,4.21,14.04,1.69l.31-.18.33.14c5.89,2.4,12.55,1.53,16.59-2.17,3.26-2.99,4.21-7.36,2.67-12.31-.41-1.08.02-2.35,1.04-2.97.95-.61,2.24-.47,3.12.34,5.01,4.62,11.75,6.81,18.95,6.19l.91-.08-.1.91c-1.16,10.52,2.15,20.95,9.07,28.61,6.43,7.12,15.22,11,24.81,10.93h102.52Z"/>
      </g>
      <g>
        <path class="cls-8" d="M252.07,70.84c-4.31.07-5.69-9.79-5.61-15.71.12-9.49-.51-18.59-2.13-27.93,4.75-1.86,12.28-4.4,14.95-1.82-1.34,9.02-1.49,18.24.94,26.98,1.06,3.79,3.7,6.37,7.51,7.15,7.46,1.52,15.26.17,21.98-3.46-.63-1.65-2-2.45-3.39-3.43-5.79-4.08-12.49-6.14-19.5-7.64-1.49-3.53-1.22-7.23.18-10.84,11.56-2.7,22.19-8.12,31.3-15.88,4.7,1.11,9.02,6.58,7.35,10.53-6.88,5.41-14.81,8.04-23.41,10.64,10.66,2.62,23.11,7.75,21.04,19.74-.49,4.15-2.87,7.15-6.61,8.89-11.91,5.54-30.23,8.27-40.52-.84-1.14,1.35-2.29,3.58-4.08,3.61Z"/>
        <path class="cls-9" d="M189.31,54.69c-.09,4.81,1.34,9.9,5.05,10.36,1.64.2,3.18-.4,4.37-1.65,4.2-4.43,2.81-13.32,1.75-20.1,3.29-1.51,7.01-1.71,10.63-.54-.34,5.12.63,14.6,3.12,14.51,2.73-.1,2.45-8.59,1.37-14.08,3.01-1.45,6.43-1.59,9.87-.59-.53,5.63.67,15.41,4.16,14.91,2.89-.41,2.5-10.07.15-15.8,3.03-1.71,6.76-1.8,10.31-.83,3.56,7.95,4.39,21.06-.96,27.16-2.18,2.49-5.44,3.26-8.72,2.77-2.8-.42-5.17-2.3-7.36-5.17-2.61,4.79-7.32,5.27-11.97,2.61-1.6,5.31-5.64,8.38-10.6,9.6-10.66,2.61-20.27-3.85-22.36-14.63-1.44-7.38-.12-14.86,3.11-21.88,3.74-.72,7.5-.58,11.3.53-1.79,4.32-3.13,8.33-3.22,12.81Z"/>
        <circle class="cls-3" cx="218.02" cy="19.14" r="6.23"/>
        <circle class="cls-4" cx="211.39" cy="31.7" r="6.21"/>
        <circle class="cls-1" cx="225.48" cy="31.68" r="6.16"/>
      </g>
      <g>
        <path class="cls-7" d="M8.94,56.36c-3.68-8.01-2.07-17.23,3.34-23.76,2.8-3.39,8.45-4.12,11.03-.32,1.22,1.8,0,5.62-.74,7.31-2.14.71-3.98,1.75-4.6,4.15-1.11,4.27,1.37,8.2,5.53,9.71,7.69,2.78,17.16-.17,17.69-1.8,1.19-3.72-11.65-4.12-11.76-12.82-.07-5.28,2.41-10.14,6.23-13.15,4.23-3.32,9.54-4.92,14.82-3.34,4.81,1.44,6.86,6.63,5.63,11.31-2.42,1.02-4.56,1.91-7.38,2.3-.38-1.6-.87-2.99-1.84-3.53-2.42-1.36-6.76.47-7.25,3.2-.22,1.25.72,2.47,1.96,3.34l8.73,6.08c3.31,3.27,4.14,7.85,1.63,11.82-6.06,9.61-21.63,11.87-32.2,8.44-4.56-1.48-8.71-4.35-10.82-8.95Z"/>
        <path class="cls-7" d="M150.03,68.09c-.85-.93-1.15-2.65-1.42-3.81-2.74-11.9-3.46-23.9-2.98-35.9,4.32-2.42,8.7-3.45,13.39-2.53-2.68,14.36-1.42,28.77,2.73,42.57-3.92,1.05-7.91,1.22-11.71-.33Z"/>
        <path class="cls-7" d="M158.17,15.49c1.6-1,2.4,1.02,2.78,1.79s.6,2.91-.62,3.24l-17.32,4.82-1.21-4.54,6.01-1.66c-1.69-3.9-.98-8.34,2.41-11,1.22-.95,3.22-1.67,4.62-.79,1.27.8,1.75,2.67,1.46,4.29-2.39-.22-5.46,2.43-4.1,4.77,1.16,2.01,4.49,0,5.98-.93Z"/>
        <circle class="cls-7" cx="22.32" cy="74.43" r="6.22"/>
        <circle class="cls-7" cx="36.97" cy="74.42" r="6.22"/>
        <path class="cls-7" d="M132.74,28.53c-2.57,2.08-6.3,2.12-8.61-.02s-2.33-5.87-.59-8.23c1.83-2.49,5.2-2.99,8.11-1.54,1.73.86,2.75,2.58,3.05,4.1.41,2.07-.2,4.26-1.96,5.69Z"/>
        <circle class="cls-7" cx="98.6" cy="31.14" r="6.14"/>
        <g>
          <path class="cls-7" d="M126.75,32.51c5.19-.62,9.39,1.34,12.22,5.88,4.84,7.77,4.34,19.72-3.23,25.99-8.55,7.1-26.38,7.57-33.84-1.93-2.37,4.7-6.98,6.65-11.8,5.48-3.11-.75-5.36-2.46-7.05-5.44-5.8,7.18-18.4,7.42-25.34,2.15-2.64-2-3.44-4.92-2.12-7.83,1.21-2.66,3.11-4.77,5.97-5.77,2.77,4.07,7.57,5.07,11.97,3.29,1.3-.53,2.43-1.43,2.83-2.44,1.78-4.45-5.81-9.69-12.36-10.37-.82-4.07.64-8.15,3.67-10.68,1.57-1.31,3.25-1.27,4.95-.24,5.37,3.25,9.94,7.81,12.7,13.53l3.52,9.68c.55,1.52,2.15,3.04,3.75,1.84,2.89-2.17,2.37-8.87,1.41-13.9,3.84-1.42,7.88-1.42,12.02-.32-.51,3.72-.25,7.49,1.52,10.97,2.46,4.83,10.58,5.92,16.37,3.61-2.29-1.46-4.69-2.57-6.32-4.65-3.65-4.66-2.55-10.93,1.46-14.97,2.12-2.14,4.38-3.49,7.7-3.89Z"/>
          <path class="cls-2" d="M131.38,49.21c-2.08.38-4.33-.22-5.93-1.61-1.4-1.22-1.48-3.52-.47-4.63,1.29-1.43,3.38-1.45,4.81-.17,1.71,1.54,2.23,3.62,1.59,6.42Z"/>
        </g>
      </g>
      <g>
        <path class="cls-5" d="M94.48,88.73l-2.09,4.57c-.61-.24-1.28-.36-2.02-.36-1.06,0-1.59.33-1.59.99,0,.32.15.56.44.74.3.18.72.27,1.26.27.74,0,1.37-.15,1.9-.46l2.09,4.9c-.59.41-1.3.73-2.14.98-.84.24-1.63.36-2.4.36-1.91,0-3.44-.63-4.57-1.9-1.13-1.27-1.7-2.83-1.7-4.69,0-1.96.59-3.58,1.77-4.85s2.68-1.91,4.5-1.91c.79,0,1.6.12,2.44.37.84.25,1.54.58,2.1,1Z"/>
        <path class="cls-5" d="M100.94,100.51h-4.99l3.91-12.94h7.1l3.91,12.94h-4.98l-.65-2.19h-3.66l-.65,2.19ZM102.5,95.27h1.84l-.92-3.21-.92,3.21Z"/>
        <path class="cls-5" d="M122.93,88.23l-1.24,4.08c-.81-1.26-1.74-1.89-2.8-1.89-.59,0-.88.25-.88.76,0,.16.09.32.28.48s.67.42,1.45.77c.86.39,1.52.75,1.99,1.06s.81.73,1.04,1.23c.23.5.35,1.08.35,1.74,0,1.39-.46,2.44-1.37,3.17-.91.73-2.26,1.09-4.04,1.09-1.99,0-3.71-.32-5.15-.98l1.22-4.32c.35.63.79,1.14,1.32,1.51s1.03.56,1.51.56c.24,0,.43-.07.59-.21.16-.14.24-.31.24-.52,0-.19-.08-.38-.23-.55-.16-.18-.56-.42-1.23-.73-.6-.28-1.1-.55-1.49-.81-.39-.26-.74-.64-1.03-1.12-.29-.49-.44-1.1-.44-1.84,0-1.44.46-2.52,1.37-3.25.91-.73,2.25-1.09,4.03-1.09,1.62,0,3.13.29,4.51.86Z"/>
        <path class="cls-5" d="M130.92,100.51h-4.99v-12.94h4.99v4.74h2.54v-4.74h4.99v12.94h-4.99v-4.81h-2.54v4.81Z"/>
        <path class="cls-5" d="M151.31,100.51h-4.99l3.91-12.94h7.1l3.91,12.94h-4.98l-.65-2.19h-3.66l-.65,2.19ZM152.86,95.27h1.84l-.92-3.21-.92,3.21Z"/>
        <path class="cls-5" d="M163.85,100.51v-12.94h9.26v3.25h-4.28v2.35h3.17v3.25h-3.17v4.1h-4.98Z"/>
        <path class="cls-5" d="M178.64,100.51h-4.99l3.91-12.94h7.1l3.91,12.94h-4.98l-.65-2.19h-3.66l-.65,2.19ZM180.2,95.27h1.84l-.92-3.21-.92,3.21Z"/>
        <path class="cls-5" d="M202.37,100.62h-3.78l-2.42-4.08v3.98h-4.98v-12.94h3.56l2.63,4.38v-4.38h4.99v13.04Z"/>
        <path class="cls-5" d="M206.05,87.57h5.54c2,0,3.54.63,4.62,1.9s1.63,2.8,1.63,4.59c0,1.14-.25,2.22-.74,3.24-.49,1.01-1.22,1.8-2.17,2.37s-2.11.84-3.46.84h-5.42v-12.94ZM211.03,92.53v3.04h.13c.6,0,1.03-.12,1.3-.36.27-.24.4-.63.4-1.18,0-1-.5-1.49-1.51-1.49h-.32Z"/>
        <path class="cls-5" d="M227.53,100.51h-4.99v-5.65l-4.29-7.29h5.05l1.74,2.93,1.73-2.93h5.05l-4.29,7.29v5.65Z"/>
      </g>
    </g>
  </g>
</svg>